<svg width="55" height="52" viewBox="0 0 55 52" fill="none" xmlns="http://www.w3.org/2000/svg">
<g filter="url(#filter0_d_101_705)">
<rect x="4" y="0.00012207" width="47" height="46.0408" rx="15" fill="#7189FF"/>
<rect x="5" y="1.00012" width="45" height="44.0408" rx="14" stroke="#6378E0" stroke-width="2"/>
</g>
<g filter="url(#filter1_i_101_705)">
<path d="M41.3418 21.1767C42.4842 22.3721 41.6369 24.3538 39.9834 24.3538C38.9457 24.3538 38.1045 25.195 38.1045 26.2327V34.6448C38.1045 35.7493 37.2091 36.6448 36.1045 36.6448H19.9561C18.8515 36.6448 17.9561 35.7493 17.9561 34.6448V26.3538C17.9561 25.2492 17.0606 24.3538 15.9561 24.3538H15.5537C13.7937 24.3538 12.8918 22.2444 14.1078 20.972L26.181 8.33845C26.9688 7.51417 28.2851 7.51417 29.0729 8.33845L41.3418 21.1767Z" fill="#416BD6"/>
</g>
<defs>
<filter id="filter0_d_101_705" x="0" y="0.00012207" width="55" height="55.0408" filterUnits="userSpaceOnUse" color-interpolation-filters="sRGB">
<feFlood flood-opacity="0" result="BackgroundImageFix"/>
<feColorMatrix in="SourceAlpha" type="matrix" values="0 0 0 0 0 0 0 0 0 0 0 0 0 0 0 0 0 0 127 0" result="hardAlpha"/>
<feOffset dy="5"/>
<feGaussianBlur stdDeviation="2"/>
<feComposite in2="hardAlpha" operator="out"/>
<feColorMatrix type="matrix" values="0 0 0 0 0 0 0 0 0 0 0 0 0 0 0 0 0 0 0.25 0"/>
<feBlend mode="normal" in2="BackgroundImageFix" result="effect1_dropShadow_101_705"/>
<feBlend mode="normal" in="SourceGraphic" in2="effect1_dropShadow_101_705" result="shape"/>
</filter>
<filter id="filter1_i_101_705" x="13.5497" y="7.72021" width="28.3164" height="32.9246" filterUnits="userSpaceOnUse" color-interpolation-filters="sRGB">
<feFlood flood-opacity="0" result="BackgroundImageFix"/>
<feBlend mode="normal" in="SourceGraphic" in2="BackgroundImageFix" result="shape"/>
<feColorMatrix in="SourceAlpha" type="matrix" values="0 0 0 0 0 0 0 0 0 0 0 0 0 0 0 0 0 0 127 0" result="hardAlpha"/>
<feOffset dy="5"/>
<feGaussianBlur stdDeviation="2"/>
<feComposite in2="hardAlpha" operator="arithmetic" k2="-1" k3="1"/>
<feColorMatrix type="matrix" values="0 0 0 0 0 0 0 0 0 0 0 0 0 0 0 0 0 0 0.25 0"/>
<feBlend mode="normal" in2="shape" result="effect1_innerShadow_101_705"/>
</filter>
</defs>
</svg>
