<svg width="44" height="44" viewBox="0 0 44 44" fill="none" xmlns="http://www.w3.org/2000/svg">
<circle cx="22" cy="22" r="22" fill="#C1CEFE"/>
<g filter="url(#filter0_i_101_483)">
<path d="M16.7835 16.2364L20.0105 15.937C23.6677 15.5975 26.8251 18.4755 26.8251 22.1484V29.7702C26.8251 30.5511 27.4582 31.1842 28.2391 31.1842C29.02 31.1842 29.6531 31.8173 29.6531 32.5982V34.2444C29.6531 35.9344 28.283 37.3045 26.593 37.3045H17.4089C15.7188 37.3045 14.3488 35.9344 14.3488 34.2444V32.515C14.3488 31.78 14.9446 31.1842 15.6796 31.1842C16.4146 31.1842 17.0104 30.5884 17.0104 29.8534V22.921C17.0104 22.186 16.4146 21.5902 15.6796 21.5902C14.9446 21.5902 14.3488 20.9944 14.3488 20.2594V18.9076C14.3488 17.5221 15.4039 16.3645 16.7835 16.2364Z" fill="#7189FF"/>
</g>
<g filter="url(#filter1_i_101_483)">
<ellipse cx="21.5217" cy="8.60841" rx="6.21739" ry="4.78261" fill="#7189FF"/>
</g>
<defs>
<filter id="filter0_i_101_483" x="14.3488" y="15.9097" width="15.3043" height="21.3948" filterUnits="userSpaceOnUse" color-interpolation-filters="sRGB">
<feFlood flood-opacity="0" result="BackgroundImageFix"/>
<feBlend mode="normal" in="SourceGraphic" in2="BackgroundImageFix" result="shape"/>
<feColorMatrix in="SourceAlpha" type="matrix" values="0 0 0 0 0 0 0 0 0 0 0 0 0 0 0 0 0 0 127 0" result="hardAlpha"/>
<feOffset dy="4"/>
<feComposite in2="hardAlpha" operator="arithmetic" k2="-1" k3="1"/>
<feColorMatrix type="matrix" values="0 0 0 0 0 0 0 0 0 0 0 0 0 0 0 0 0 0 0.25 0"/>
<feBlend mode="normal" in2="shape" result="effect1_innerShadow_101_483"/>
</filter>
<filter id="filter1_i_101_483" x="15.3043" y="3.82581" width="12.4348" height="9.56525" filterUnits="userSpaceOnUse" color-interpolation-filters="sRGB">
<feFlood flood-opacity="0" result="BackgroundImageFix"/>
<feBlend mode="normal" in="SourceGraphic" in2="BackgroundImageFix" result="shape"/>
<feColorMatrix in="SourceAlpha" type="matrix" values="0 0 0 0 0 0 0 0 0 0 0 0 0 0 0 0 0 0 127 0" result="hardAlpha"/>
<feOffset dy="4"/>
<feComposite in2="hardAlpha" operator="arithmetic" k2="-1" k3="1"/>
<feColorMatrix type="matrix" values="0 0 0 0 0 0 0 0 0 0 0 0 0 0 0 0 0 0 0.25 0"/>
<feBlend mode="normal" in2="shape" result="effect1_innerShadow_101_483"/>
</filter>
</defs>
</svg>
