<svg width="93" height="45" viewBox="0 0 93 45" fill="none" xmlns="http://www.w3.org/2000/svg">
<circle cx="70.3232" cy="22.3232" r="22.3232" fill="#D9D9D9"/>
<path d="M49.3127 29.8737C56.7538 24.4023 75.4441 16.7424 90.6764 29.8737C86.737 45.303 57.9794 52.7222 49.3127 29.8737Z" fill="#3355FF" stroke="#5673FF"/>
<circle cx="69.9942" cy="13.7875" r="11.8182" fill="#3355FF"/>
<path d="M1.4 30V16H5.36V26.86H12.04V30H1.4ZM19.068 30.18C17.788 30.18 16.668 29.94 15.708 29.46C14.7613 28.9667 14.0213 28.3 13.488 27.46C12.968 26.6067 12.708 25.64 12.708 24.56C12.708 23.48 12.9613 22.52 13.468 21.68C13.988 20.8267 14.7013 20.1667 15.608 19.7C16.5146 19.22 17.5346 18.98 18.668 18.98C19.7346 18.98 20.708 19.2 21.588 19.64C22.468 20.0667 23.168 20.7 23.688 21.54C24.208 22.38 24.468 23.4 24.468 24.6C24.468 24.7333 24.4613 24.8867 24.448 25.06C24.4346 25.2333 24.4213 25.3933 24.408 25.54H15.828V23.54H22.388L20.948 24.1C20.9613 23.6067 20.868 23.18 20.668 22.82C20.4813 22.46 20.2146 22.18 19.868 21.98C19.5346 21.78 19.1413 21.68 18.688 21.68C18.2346 21.68 17.8346 21.78 17.488 21.98C17.1546 22.18 16.8946 22.4667 16.708 22.84C16.5213 23.2 16.428 23.6267 16.428 24.12V24.7C16.428 25.2333 16.5346 25.6933 16.748 26.08C16.9746 26.4667 17.2946 26.7667 17.708 26.98C18.1213 27.18 18.6146 27.28 19.188 27.28C19.7213 27.28 20.1746 27.2067 20.548 27.06C20.9346 26.9 21.3146 26.66 21.688 26.34L23.688 28.42C23.168 28.9933 22.528 29.4333 21.768 29.74C21.008 30.0333 20.108 30.18 19.068 30.18ZM31.66 30.18C30.4733 30.18 29.42 29.94 28.5 29.46C27.58 28.98 26.8533 28.32 26.32 27.48C25.8 26.6267 25.54 25.6533 25.54 24.56C25.54 23.4667 25.8 22.5 26.32 21.66C26.8533 20.82 27.58 20.1667 28.5 19.7C29.42 19.22 30.4733 18.98 31.66 18.98C32.8467 18.98 33.9 19.22 34.82 19.7C35.7533 20.1667 36.48 20.82 37 21.66C37.52 22.5 37.78 23.4667 37.78 24.56C37.78 25.6533 37.52 26.6267 37 27.48C36.48 28.32 35.7533 28.98 34.82 29.46C33.9 29.94 32.8467 30.18 31.66 30.18ZM31.66 27.16C32.1 27.16 32.4867 27.06 32.82 26.86C33.1667 26.66 33.44 26.3667 33.64 25.98C33.84 25.58 33.94 25.1067 33.94 24.56C33.94 24.0133 33.84 23.5533 33.64 23.18C33.44 22.7933 33.1667 22.5 32.82 22.3C32.4867 22.1 32.1 22 31.66 22C31.2333 22 30.8467 22.1 30.5 22.3C30.1667 22.5 29.8933 22.7933 29.68 23.18C29.48 23.5533 29.38 24.0133 29.38 24.56C29.38 25.1067 29.48 25.58 29.68 25.98C29.8933 26.3667 30.1667 26.66 30.5 26.86C30.8467 27.06 31.2333 27.16 31.66 27.16Z" fill="white"/>
</svg>
